<svg width="28" height="28" viewBox="0 0 28 28" fill="none" xmlns="http://www.w3.org/2000/svg">
<path opacity="0.987" fill-rule="evenodd" clip-rule="evenodd" d="M12.6158 1.85674C13.8845 1.71499 14.6353 1.71499 15.9985 1.85674C18.4116 2.21391 20.6486 3.32934 22.386 5.04174C21.212 6.15148 20.0534 7.27742 18.9105 8.41924C16.7218 6.56424 14.2788 6.13607 11.5815 7.13474C9.60283 8.04474 8.225 9.51941 7.448 11.5587C6.17827 10.6134 4.92508 9.64613 3.689 8.65724C3.6031 8.61202 3.50498 8.59547 3.409 8.60999C5.3725 4.82416 8.44083 2.57249 12.614 1.85499" fill="#F44336"/>
<path opacity="0.997" fill-rule="evenodd" clip-rule="evenodd" d="M3.4055 8.61001C3.50467 8.59484 3.59858 8.61059 3.68725 8.65726C4.92333 9.64615 6.17652 10.6135 7.44625 11.5588C7.24644 12.3534 7.12049 13.1647 7.07 13.9825C7.11317 14.7735 7.23858 15.5499 7.44625 16.3118L3.5 19.453C1.7815 15.862 1.75 12.2477 3.4055 8.61001Z" fill="#FFC107"/>
<path opacity="0.999" fill-rule="evenodd" clip-rule="evenodd" d="M22.1988 23.2575C20.97 22.1738 19.6836 21.1574 18.3453 20.2125C19.6869 19.2651 20.5013 17.9655 20.7883 16.3135H14.2135V11.7477C18.0052 11.7162 21.7951 11.7483 25.5833 11.844C26.3019 15.7465 25.4718 19.2651 23.093 22.4C22.8101 22.7007 22.5105 22.9869 22.1988 23.2575Z" fill="#448AFF"/>
<path opacity="0.993" fill-rule="evenodd" clip-rule="evenodd" d="M7.44625 16.3135C8.88125 19.88 11.5121 21.5448 15.3388 21.308C16.413 21.1836 17.4429 20.8084 18.3453 20.2125C19.6846 21.1598 20.9691 22.1748 22.1988 23.2575C20.2504 25.0083 17.7662 26.0471 15.1515 26.2045C14.5574 26.252 13.9606 26.252 13.3665 26.2045C8.91217 25.6795 5.62333 23.429 3.5 19.453L7.44625 16.3135Z" fill="#43A047"/>
</svg>
